<mxfile host="app.diagrams.net" modified="2024-05-08T13:32:48.915Z" agent="Mozilla/5.0 (Windows NT 10.0; Win64; x64) AppleWebKit/537.36 (KHTML, like Gecko) Chrome/124.0.0.0 Safari/537.36 Edg/124.0.0.0" etag="tFjsxVmQ79j7CyyHaLMw" version="24.3.1" type="github">
  <diagram name="Page-1" id="tIOGqNSBbXkv8xK3KrCa">
    <mxGraphModel dx="1282" dy="535" grid="1" gridSize="10" guides="1" tooltips="1" connect="1" arrows="1" fold="1" page="1" pageScale="1" pageWidth="1654" pageHeight="2336" math="0" shadow="0">
      <root>
        <mxCell id="0" />
        <mxCell id="1" parent="0" />
        <mxCell id="j1WCuB2a1CNJicdkOU80-1" value="Tuteur" style="shape=umlActor;verticalLabelPosition=bottom;verticalAlign=top;html=1;outlineConnect=0;" vertex="1" parent="1">
          <mxGeometry x="250" y="100" width="30" height="60" as="geometry" />
        </mxCell>
        <mxCell id="j1WCuB2a1CNJicdkOU80-3" value="&#xa;" style="swimlane;startSize=0;" vertex="1" parent="1">
          <mxGeometry x="400" y="50" width="1000" height="710" as="geometry" />
        </mxCell>
        <mxCell id="j1WCuB2a1CNJicdkOU80-5" value="" style="ellipse;whiteSpace=wrap;html=1;" vertex="1" parent="j1WCuB2a1CNJicdkOU80-3">
          <mxGeometry x="130" y="30" width="270" height="100" as="geometry" />
        </mxCell>
        <mxCell id="j1WCuB2a1CNJicdkOU80-7" value="" style="endArrow=none;html=1;rounded=0;entryX=0.901;entryY=0.225;entryDx=0;entryDy=0;entryPerimeter=0;exitX=0.101;exitY=0.218;exitDx=0;exitDy=0;exitPerimeter=0;" edge="1" parent="j1WCuB2a1CNJicdkOU80-3" source="j1WCuB2a1CNJicdkOU80-5" target="j1WCuB2a1CNJicdkOU80-5">
          <mxGeometry width="50" height="50" relative="1" as="geometry">
            <mxPoint x="140" y="50" as="sourcePoint" />
            <mxPoint x="390" y="60" as="targetPoint" />
          </mxGeometry>
        </mxCell>
        <mxCell id="j1WCuB2a1CNJicdkOU80-8" value="gestion des stages" style="text;html=1;align=center;verticalAlign=middle;whiteSpace=wrap;rounded=0;" vertex="1" parent="j1WCuB2a1CNJicdkOU80-3">
          <mxGeometry x="210" y="30" width="110" height="30" as="geometry" />
        </mxCell>
        <mxCell id="j1WCuB2a1CNJicdkOU80-9" value="&lt;b&gt;extensions points&lt;/b&gt;" style="text;html=1;align=center;verticalAlign=middle;whiteSpace=wrap;rounded=0;" vertex="1" parent="j1WCuB2a1CNJicdkOU80-3">
          <mxGeometry x="210" y="50" width="110" height="30" as="geometry" />
        </mxCell>
        <mxCell id="j1WCuB2a1CNJicdkOU80-12" value="creer des objectifs de stage" style="text;html=1;align=center;verticalAlign=middle;whiteSpace=wrap;rounded=0;" vertex="1" parent="j1WCuB2a1CNJicdkOU80-3">
          <mxGeometry x="173.75" y="65" width="182.5" height="30" as="geometry" />
        </mxCell>
        <mxCell id="j1WCuB2a1CNJicdkOU80-14" value="ajouter et assigner des taches de stage" style="text;html=1;align=center;verticalAlign=middle;whiteSpace=wrap;rounded=0;" vertex="1" parent="j1WCuB2a1CNJicdkOU80-3">
          <mxGeometry x="160" y="80" width="220" height="30" as="geometry" />
        </mxCell>
        <mxCell id="j1WCuB2a1CNJicdkOU80-15" value="suivre les stagiaires" style="text;html=1;align=center;verticalAlign=middle;whiteSpace=wrap;rounded=0;" vertex="1" parent="j1WCuB2a1CNJicdkOU80-3">
          <mxGeometry x="200" y="95" width="130" height="30" as="geometry" />
        </mxCell>
        <mxCell id="j1WCuB2a1CNJicdkOU80-22" value="" style="ellipse;whiteSpace=wrap;html=1;" vertex="1" parent="j1WCuB2a1CNJicdkOU80-3">
          <mxGeometry x="520" y="42.5" width="150" height="45" as="geometry" />
        </mxCell>
        <mxCell id="j1WCuB2a1CNJicdkOU80-23" value="ajouter un objectif ou une tache" style="text;html=1;align=center;verticalAlign=middle;whiteSpace=wrap;rounded=0;" vertex="1" parent="j1WCuB2a1CNJicdkOU80-3">
          <mxGeometry x="530" y="50" width="120" height="30" as="geometry" />
        </mxCell>
        <mxCell id="j1WCuB2a1CNJicdkOU80-25" value="modifier un objectif, ou une tache" style="ellipse;whiteSpace=wrap;html=1;" vertex="1" parent="j1WCuB2a1CNJicdkOU80-3">
          <mxGeometry x="520" y="100" width="180" height="40" as="geometry" />
        </mxCell>
        <mxCell id="j1WCuB2a1CNJicdkOU80-27" value="supprimer un objectif, ou une tache" style="ellipse;whiteSpace=wrap;html=1;" vertex="1" parent="j1WCuB2a1CNJicdkOU80-3">
          <mxGeometry x="520" y="160" width="180" height="40" as="geometry" />
        </mxCell>
        <mxCell id="j1WCuB2a1CNJicdkOU80-30" value="" style="endArrow=none;dashed=1;html=1;rounded=0;entryX=-0.073;entryY=0.6;entryDx=0;entryDy=0;entryPerimeter=0;exitX=1.001;exitY=0.372;exitDx=0;exitDy=0;exitPerimeter=0;" edge="1" parent="j1WCuB2a1CNJicdkOU80-3" source="j1WCuB2a1CNJicdkOU80-5" target="j1WCuB2a1CNJicdkOU80-23">
          <mxGeometry width="50" height="50" relative="1" as="geometry">
            <mxPoint x="200" y="290" as="sourcePoint" />
            <mxPoint x="250" y="240" as="targetPoint" />
          </mxGeometry>
        </mxCell>
        <mxCell id="j1WCuB2a1CNJicdkOU80-32" value="&amp;lt;&amp;lt;Extend&amp;gt;&amp;gt;" style="edgeLabel;html=1;align=center;verticalAlign=middle;resizable=0;points=[];" vertex="1" connectable="0" parent="j1WCuB2a1CNJicdkOU80-30">
          <mxGeometry x="-0.0362" y="5" relative="1" as="geometry">
            <mxPoint as="offset" />
          </mxGeometry>
        </mxCell>
        <mxCell id="j1WCuB2a1CNJicdkOU80-33" value="" style="endArrow=none;dashed=1;html=1;rounded=0;entryX=0.051;entryY=0.3;entryDx=0;entryDy=0;entryPerimeter=0;exitX=1;exitY=1;exitDx=0;exitDy=0;" edge="1" parent="j1WCuB2a1CNJicdkOU80-3" source="j1WCuB2a1CNJicdkOU80-14" target="j1WCuB2a1CNJicdkOU80-25">
          <mxGeometry width="50" height="50" relative="1" as="geometry">
            <mxPoint x="410" y="77" as="sourcePoint" />
            <mxPoint x="531" y="78" as="targetPoint" />
          </mxGeometry>
        </mxCell>
        <mxCell id="j1WCuB2a1CNJicdkOU80-34" value="&amp;lt;&amp;lt;Extend&amp;gt;&amp;gt;" style="edgeLabel;html=1;align=center;verticalAlign=middle;resizable=0;points=[];" vertex="1" connectable="0" parent="j1WCuB2a1CNJicdkOU80-33">
          <mxGeometry x="-0.0362" y="5" relative="1" as="geometry">
            <mxPoint as="offset" />
          </mxGeometry>
        </mxCell>
        <mxCell id="j1WCuB2a1CNJicdkOU80-35" value="" style="endArrow=none;dashed=1;html=1;rounded=0;entryX=0.056;entryY=0.26;entryDx=0;entryDy=0;entryPerimeter=0;exitX=0.717;exitY=0.988;exitDx=0;exitDy=0;exitPerimeter=0;" edge="1" parent="j1WCuB2a1CNJicdkOU80-3" source="j1WCuB2a1CNJicdkOU80-5" target="j1WCuB2a1CNJicdkOU80-27">
          <mxGeometry width="50" height="50" relative="1" as="geometry">
            <mxPoint x="390" y="120" as="sourcePoint" />
            <mxPoint x="539" y="122" as="targetPoint" />
          </mxGeometry>
        </mxCell>
        <mxCell id="j1WCuB2a1CNJicdkOU80-36" value="&amp;lt;&amp;lt;Extend&amp;gt;&amp;gt;" style="edgeLabel;html=1;align=center;verticalAlign=middle;resizable=0;points=[];" vertex="1" connectable="0" parent="j1WCuB2a1CNJicdkOU80-35">
          <mxGeometry x="-0.0362" y="5" relative="1" as="geometry">
            <mxPoint as="offset" />
          </mxGeometry>
        </mxCell>
        <mxCell id="j1WCuB2a1CNJicdkOU80-37" value="S&#39;authentifier" style="ellipse;whiteSpace=wrap;html=1;" vertex="1" parent="j1WCuB2a1CNJicdkOU80-3">
          <mxGeometry x="840" y="100" width="100" height="40" as="geometry" />
        </mxCell>
        <mxCell id="j1WCuB2a1CNJicdkOU80-39" value="" style="endArrow=none;dashed=1;html=1;rounded=0;entryX=0.5;entryY=0;entryDx=0;entryDy=0;exitX=1;exitY=0.5;exitDx=0;exitDy=0;" edge="1" parent="j1WCuB2a1CNJicdkOU80-3">
          <mxGeometry width="50" height="50" relative="1" as="geometry">
            <mxPoint x="670" y="65" as="sourcePoint" />
            <mxPoint x="890" y="100" as="targetPoint" />
          </mxGeometry>
        </mxCell>
        <mxCell id="j1WCuB2a1CNJicdkOU80-40" value="&amp;lt;&amp;lt;include&amp;gt;&amp;gt;" style="edgeLabel;html=1;align=center;verticalAlign=middle;resizable=0;points=[];" vertex="1" connectable="0" parent="j1WCuB2a1CNJicdkOU80-39">
          <mxGeometry x="-0.0362" y="5" relative="1" as="geometry">
            <mxPoint as="offset" />
          </mxGeometry>
        </mxCell>
        <mxCell id="j1WCuB2a1CNJicdkOU80-44" value="" style="endArrow=none;dashed=1;html=1;rounded=0;entryX=0;entryY=1;entryDx=0;entryDy=0;exitX=1;exitY=0.5;exitDx=0;exitDy=0;" edge="1" parent="j1WCuB2a1CNJicdkOU80-3" source="j1WCuB2a1CNJicdkOU80-27" target="j1WCuB2a1CNJicdkOU80-37">
          <mxGeometry width="50" height="50" relative="1" as="geometry">
            <mxPoint x="690" y="85" as="sourcePoint" />
            <mxPoint x="910" y="120" as="targetPoint" />
          </mxGeometry>
        </mxCell>
        <mxCell id="j1WCuB2a1CNJicdkOU80-45" value="&amp;lt;&amp;lt;include&amp;gt;&amp;gt;" style="edgeLabel;html=1;align=center;verticalAlign=middle;resizable=0;points=[];" vertex="1" connectable="0" parent="j1WCuB2a1CNJicdkOU80-44">
          <mxGeometry x="-0.0362" y="5" relative="1" as="geometry">
            <mxPoint as="offset" />
          </mxGeometry>
        </mxCell>
        <mxCell id="j1WCuB2a1CNJicdkOU80-52" value="consulter la liste des etudiants en stage" style="ellipse;whiteSpace=wrap;html=1;" vertex="1" parent="j1WCuB2a1CNJicdkOU80-3">
          <mxGeometry x="140" y="240" width="200" height="50" as="geometry" />
        </mxCell>
        <mxCell id="j1WCuB2a1CNJicdkOU80-54" value="suivre le satge de ses etudiants" style="ellipse;whiteSpace=wrap;html=1;" vertex="1" parent="j1WCuB2a1CNJicdkOU80-3">
          <mxGeometry x="140" y="310" width="190" height="50" as="geometry" />
        </mxCell>
        <mxCell id="j1WCuB2a1CNJicdkOU80-16" value="Ecole" style="shape=umlActor;verticalLabelPosition=bottom;verticalAlign=top;html=1;outlineConnect=0;" vertex="1" parent="1">
          <mxGeometry x="250" y="280" width="30" height="60" as="geometry" />
        </mxCell>
        <mxCell id="j1WCuB2a1CNJicdkOU80-19" value="" style="endArrow=none;html=1;rounded=0;" edge="1" parent="1">
          <mxGeometry width="50" height="50" relative="1" as="geometry">
            <mxPoint x="290" y="120" as="sourcePoint" />
            <mxPoint x="530" y="120" as="targetPoint" />
          </mxGeometry>
        </mxCell>
        <mxCell id="j1WCuB2a1CNJicdkOU80-42" value="" style="endArrow=none;dashed=1;html=1;rounded=0;exitX=1;exitY=0.5;exitDx=0;exitDy=0;" edge="1" parent="1" source="j1WCuB2a1CNJicdkOU80-25">
          <mxGeometry width="50" height="50" relative="1" as="geometry">
            <mxPoint x="1080" y="125" as="sourcePoint" />
            <mxPoint x="1240" y="170" as="targetPoint" />
          </mxGeometry>
        </mxCell>
        <mxCell id="j1WCuB2a1CNJicdkOU80-49" value="&amp;lt;&amp;lt;include&amp;gt;&amp;gt;" style="edgeLabel;html=1;align=center;verticalAlign=middle;resizable=0;points=[];" vertex="1" connectable="0" parent="j1WCuB2a1CNJicdkOU80-42">
          <mxGeometry x="0.1057" y="4" relative="1" as="geometry">
            <mxPoint as="offset" />
          </mxGeometry>
        </mxCell>
        <mxCell id="j1WCuB2a1CNJicdkOU80-53" value="" style="endArrow=none;html=1;rounded=0;entryX=0;entryY=0;entryDx=0;entryDy=0;" edge="1" parent="1" source="j1WCuB2a1CNJicdkOU80-16" target="j1WCuB2a1CNJicdkOU80-52">
          <mxGeometry width="50" height="50" relative="1" as="geometry">
            <mxPoint x="760" y="460" as="sourcePoint" />
            <mxPoint x="810" y="410" as="targetPoint" />
          </mxGeometry>
        </mxCell>
        <mxCell id="j1WCuB2a1CNJicdkOU80-55" value="" style="endArrow=none;html=1;rounded=0;entryX=0.006;entryY=0.328;entryDx=0;entryDy=0;entryPerimeter=0;" edge="1" parent="1" target="j1WCuB2a1CNJicdkOU80-54">
          <mxGeometry width="50" height="50" relative="1" as="geometry">
            <mxPoint x="290" y="319" as="sourcePoint" />
            <mxPoint x="579" y="307" as="targetPoint" />
          </mxGeometry>
        </mxCell>
        <mxCell id="j1WCuB2a1CNJicdkOU80-56" value="Stagiaire&lt;div&gt;&lt;br&gt;&lt;/div&gt;" style="shape=umlActor;verticalLabelPosition=bottom;verticalAlign=top;html=1;outlineConnect=0;" vertex="1" parent="1">
          <mxGeometry x="250" y="660" width="30" height="60" as="geometry" />
        </mxCell>
      </root>
    </mxGraphModel>
  </diagram>
</mxfile>
